# xmcd CD database file
#
# Track frame offsets:
#	150
#	30250
#	60368
#	90808
#	123810
#	147970
#	191058
#	224190
#	265638
#	303621
#
# Disc length: 4322 seconds
#
# Revision: 0
# Processed by: cddbd v1.5.1PL0 Copyright (c) Steve Scherf et al.
# Submitted via: CDex 1.51
#
DISCID=8310e00a
DTITLE=lemonjelly - .ky
DYEAR=2000
DGENRE=Techno
TTITLE0=In The Bath
TTITLE1=Nervous Tension
TTITLE2=A Tune For Jack
TTITLE3=His Majesty King Raam
TTITLE4=The Staunton Lick
TTITLE5=Homage To Patagonia
TTITLE6=Kneel Before Your God
TTITLE7=Page One
TTITLE8=Come
TTITLE9=Soft
EXTD=YEAR: 2000
EXTT0=
EXTT1=
EXTT2=
EXTT3=
EXTT4=
EXTT5=
EXTT6=
EXTT7=
EXTT8=
EXTT9=
PLAYORDER=
